<svg width="24" height="24" viewBox="0 0 24 24" fill="black"
  xmlns="http://www.w3.org/2000/svg">
  <path d="M15 3.5C14.7348 3.50004 14.4805 3.60542 14.293 3.79297L6.79296 11.293C6.60549 11.4805 6.50018 11.7348 6.50018 12C6.50018 12.2652 6.60549 12.5195 6.79296 12.707L14.293 20.207C14.4805 20.3945 14.7348 20.4998 15 20.4998C15.2652 20.4998 15.5195 20.3945 15.707 20.207C15.8945 20.0195 15.9998 19.7652 15.9998 19.5C15.9998 19.2348 15.8945 18.9805 15.707 18.793L8.91405 12L15.707 5.20703C15.8945 5.0195 15.9998 4.76518 15.9998 4.5C15.9998 4.23482 15.8945 3.9805 15.707 3.79297C15.5195 3.60542 15.2652 3.50004 15 3.5V3.5Z" />
</svg>
