<svg width="24" height="24" viewBox="0 0 24 24" fill="black"
   xmlns="http://www.w3.org/2000/svg">
   <path d="M9 4C8.7348 4.00004 8.48048 4.10542 8.29297 4.29297C8.10548 4.4805 8.00015 4.73482 8.00015 5C8.00015 5.26518 8.10548 5.5195 8.29297 5.70703L15.0859 12.5L8.29297 19.293C8.10548 19.4805 8.00015 19.7348 8.00015 20C8.00015 20.2652 8.10548 20.5195 8.29297 20.707C8.4805 20.8945 8.73482 20.9998 9 20.9998C9.26518 20.9998 9.5195 20.8945 9.70703 20.707L17.207 13.207C17.3945 13.0195 17.4998 12.7652 17.4998 12.5C17.4998 12.2348 17.3945 11.9805 17.207 11.793L9.70703 4.29297C9.51953 4.10542 9.2652 4.00004 9 4Z" />
</svg>
