<svg width="24" height="24" viewBox="0 0 24 24" fill="black"
  xmlns="http://www.w3.org/2000/svg">
  <path d="M12 1C5.93462 1 1 5.93454 1 11.9999C1 18.0654 5.93462 23 12 23C18.0654 23 23 18.0654 23 11.9999C23 5.93454 18.0655 1 12 1ZM12 21.7295C6.63516 21.7295 2.2705 17.3648 2.2705 11.9999C2.2705 6.63513 6.63516 2.2705 12 2.2705C17.3648 2.2705 21.7295 6.63513 21.7295 11.9999C21.7295 17.3648 17.3648 21.7295 12 21.7295Z" />
  <path d="M18.0561 6.20287C17.8899 5.89376 17.5048 5.77804 17.1958 5.94416L10.0459 9.78869C9.93613 9.84772 9.84615 9.93766 9.78716 10.0474L5.94417 17.1958C5.80822 17.4486 5.86117 17.7525 6.05428 17.9457C6.0971 17.9885 6.14681 18.0259 6.203 18.056C6.39399 18.1587 6.6141 18.1534 6.79355 18.0616L6.79365 18.0617L6.79635 18.0603C6.79894 18.059 6.80149 18.0575 6.80404 18.0562L13.9575 14.2144C14.0672 14.1555 14.1572 14.0655 14.2163 13.9557L18.0439 6.82509C18.0523 6.81067 18.0602 6.79612 18.0674 6.78116L18.0726 6.77156L18.072 6.77135C18.1533 6.59603 18.1546 6.38617 18.0561 6.20287ZM8.06024 15.9429L10.5023 11.4005L12.6023 13.5006L8.06024 15.9429ZM13.5012 12.6026L11.4011 10.5025L15.9431 8.06025" />
</svg>
