<svg width="24" height="24" viewBox="0 0 24 24" fill="black"
  xmlns="http://www.w3.org/2000/svg">
  <path d="M22.7628 11.5121L12.4506 1.19991C12.3218 1.07187 12.1475 1 11.9659 1C11.7843 1 11.6101 1.07187 11.4812 1.19991L1.16906 11.5121C1.05644 11.6436 0.997583 11.8128 1.00427 11.9858C1.01095 12.1588 1.08268 12.323 1.20511 12.4454C1.32755 12.5678 1.49168 12.6396 1.6647 12.6462C1.83772 12.6529 2.00689 12.5941 2.13841 12.4814L11.9625 2.65737L21.7866 12.4883C21.9181 12.6009 22.0872 12.6598 22.2603 12.6531C22.4333 12.6464 22.5974 12.5747 22.7198 12.4523C22.8423 12.3298 22.914 12.1657 22.9207 11.9927C22.9274 11.8197 22.8685 11.6505 22.7559 11.519L22.7628 11.5121Z" />
  <path d="M18.8353 21.6251H15.3979V14.7503H8.52314V21.6251H5.08575V12.0004L3.71079 13.3753V21.6251C3.71079 21.9897 3.85565 22.3395 4.11351 22.5973C4.37136 22.8552 4.72109 23 5.08575 23H9.8981V16.1253H14.023V23H18.8353C19.2 23 19.5497 22.8552 19.8076 22.5973C20.0654 22.3395 20.2103 21.9897 20.2103 21.6251V13.2103L18.8353 11.8354V21.6251Z" />
</svg>
