<svg width="24" height="24" viewBox="0 0 24 24" fill="black"
  xmlns="http://www.w3.org/2000/svg">
  <path d="M21.7809 11.5565L12.4062 2.18174C12.2891 2.06534 12.1307 2 11.9656 2C11.8005 2 11.6421 2.06534 11.525 2.18174L2.15028 11.5565C2.04789 11.676 1.99439 11.8298 2.00047 11.9871C2.00654 12.1444 2.07175 12.2936 2.18305 12.4049C2.29436 12.5162 2.44357 12.5814 2.60086 12.5875C2.75815 12.5936 2.91194 12.5401 3.0315 12.4377L11.9625 3.5067L20.8935 12.4439C21.013 12.5463 21.1668 12.5998 21.3241 12.5937C21.4814 12.5877 21.6306 12.5225 21.7419 12.4112C21.8532 12.2998 21.9184 12.1506 21.9245 11.9933C21.9306 11.8361 21.8771 11.6823 21.7747 11.5627L21.7809 11.5565Z" />
  <path d="M18.2105 20.7501H15.0856V14.5003H8.83581V20.7501H5.71091V12.0003L4.46095 13.2503V20.7501C4.46095 21.0816 4.59264 21.3995 4.82705 21.6339C5.06147 21.8683 5.3794 22 5.71091 22H10.0858V15.7502H13.8357V22H18.2105C18.542 22 18.86 21.8683 19.0944 21.6339C19.3288 21.3995 19.4605 21.0816 19.4605 20.7501V13.1003L18.2105 11.8503V20.7501Z" />
</svg>
