<svg width="24" height="24" viewBox="0 0 24 24" fill="black"
  xmlns="http://www.w3.org/2000/svg">
  <path d="M12 2C17.5228 2 22 6.47715 22 12C22 17.5228 17.5228 22 12 22C6.47715 22 2 17.5228 2 12C2 6.47715 6.47715 2 12 2ZM12 3.42857C7.26613 3.42857 3.42857 7.26613 3.42857 12C3.42857 16.7339 7.26613 20.5714 12 20.5714C16.7339 20.5714 20.5714 16.7339 20.5714 12C20.5714 7.26613 16.7339 3.42857 12 3.42857Z" />
  <path fill-rule="evenodd" clip-rule="evenodd" d="M13.1224 7.30612C13.1224 7.54969 13.0257 7.78328 12.8535 7.95551C12.6812 8.12773 12.4476 8.22449 12.2041 8.22449C11.9605 8.22449 11.7269 8.12773 11.5547 7.95551C11.3825 7.78328 11.2857 7.54969 11.2857 7.30612C11.2857 7.06256 11.3825 6.82897 11.5547 6.65674C11.7269 6.48451 11.9605 6.38775 12.2041 6.38775C12.4476 6.38775 12.6812 6.48451 12.8535 6.65674C13.0257 6.82897 13.1224 7.06256 13.1224 7.30612Z" />
  <path fill-rule="evenodd" clip-rule="evenodd" d="M12.2041 6.28571C11.6417 6.28571 11.1837 6.74378 11.1837 7.30612C11.1837 7.86847 11.6417 8.32653 12.2041 8.32653C12.7664 8.32653 13.2245 7.86847 13.2245 7.30612C13.2245 6.74378 12.7664 6.28571 12.2041 6.28571ZM12.2041 6.4898C12.6561 6.4898 13.0204 6.85407 13.0204 7.30612C13.0204 7.75817 12.6561 8.12245 12.2041 8.12245C11.752 8.12245 11.3878 7.75817 11.3878 7.30612C11.3878 6.85407 11.752 6.4898 12.2041 6.4898Z" />
  <path d="M14.4324 15.5453C15.3253 15.5885 15.3253 16.9285 14.4324 16.9717L10.3912 16.9728C9.99674 16.9728 9.67694 16.653 9.67694 16.2585C9.67694 15.8772 9.97577 15.5656 10.352 15.5453L11.6937 15.5441V10.7998L10.7755 10.7999C10.3942 10.7999 10.0826 10.5011 10.0623 10.1248L10.0612 10.0857C10.0612 9.70432 10.3601 9.39278 10.7363 9.37243L10.7755 9.37137H12.4082C12.7895 9.37137 13.101 9.67021 13.1214 10.0465L13.1224 10.0857L13.1222 15.5441L14.4324 15.5453Z" />
</svg>
