<svg width="24" height="24" viewBox="0 0 24 24" fill="black"
  xmlns="http://www.w3.org/2000/svg">
  <path d="M19.3177 18.2864C18.9448 17.3915 18.4154 16.601 17.7293 15.915C17.0433 15.2289 16.2528 14.692 15.3579 14.3043C15.0597 14.1849 14.7539 14.0805 14.4407 13.9911C15.3356 13.6928 16.126 13.2006 16.8121 12.5145C17.3937 11.918 17.8374 11.2506 18.1432 10.5123C18.4489 9.77405 18.6018 8.99105 18.6018 8.16331C18.6018 7.33557 18.4489 6.54884 18.1432 5.80313C17.8374 5.05742 17.39 4.39001 16.8009 3.80089C16.2118 3.21178 15.5481 2.76435 14.8098 2.45861C14.0716 2.15287 13.2886 2 12.4609 2C11.6331 2 10.8464 2.15287 10.1007 2.45861C9.35496 2.76435 8.68755 3.21178 8.09843 3.80089C7.50932 4.39001 7.06189 5.05742 6.75615 5.80313C6.45041 6.54884 6.29754 7.33557 6.29754 8.16331C6.29754 8.99105 6.45041 9.77405 6.75615 10.5123C7.06189 11.2506 7.50559 11.918 8.08725 12.5145C8.78822 13.2006 9.58613 13.6928 10.481 13.9911C10.1678 14.0805 9.85459 14.1849 9.54139 14.3043C8.64653 14.692 7.85608 15.2289 7.17002 15.915C6.48397 16.601 5.95451 17.3915 5.58166 18.2864C5.19389 19.211 5 20.1805 5 21.1946C5 21.4183 5.07457 21.6085 5.22371 21.7651C5.37286 21.9217 5.56301 22 5.79418 22C6.02535 22 6.21551 21.9217 6.36465 21.7651C6.5138 21.6085 6.59582 21.4183 6.61074 21.1946C6.61074 20.4042 6.75615 19.6547 7.04698 18.9463C7.33781 18.2379 7.76286 17.6078 8.32215 17.0559C8.88143 16.5041 9.51156 16.079 10.2125 15.7808C10.9135 15.4825 11.6592 15.3333 12.4497 15.3333C13.2401 15.3333 13.9896 15.4825 14.698 15.7808C15.4064 16.079 16.0365 16.5041 16.5884 17.0559C17.1402 17.6078 17.5652 18.2379 17.8635 18.9463C18.1618 19.6547 18.311 20.4042 18.311 21.1946C18.311 21.4183 18.3855 21.6085 18.5347 21.7651C18.6838 21.9217 18.874 22 19.1051 22C19.3363 22 19.5265 21.9217 19.6756 21.7651C19.8248 21.6085 19.9068 21.4183 19.9217 21.1946C19.9068 20.1805 19.7054 19.211 19.3177 18.2864ZM7.90828 8.15213C7.93811 6.8695 8.3818 5.7994 9.23937 4.94183C10.0969 4.08427 11.167 3.64057 12.4497 3.61074C13.7323 3.64057 14.8024 4.08427 15.66 4.94183C16.5175 5.7994 16.9612 6.8695 16.9911 8.15213C16.9612 9.44966 16.5175 10.5235 15.66 11.3736C14.8024 12.2237 13.7323 12.6711 12.4497 12.7159C11.167 12.6711 10.0969 12.22 9.23937 11.3624C8.3818 10.5048 7.93811 9.43475 7.90828 8.15213Z" />
</svg>
