<svg width="24" height="24" viewBox="0 0 24 24" fill="none" xmlns="http://www.w3.org/2000/svg">
<path d="M3.21039 20.75H9.4979C10.1854 20.75 10.7479 20.1875 10.7479 19.5C10.7479 18.8125 10.1854 18.25 9.4979 18.25H4.29372C4.36718 18.1237 7.17339 13.3734 6.99789 13.6749L7.42294 13.9249C7.63539 14.0624 7.91039 14.0375 8.11044 13.8875C8.3104 13.7375 8.41044 13.4749 8.33544 13.2249C8.30269 13.0974 7.68456 10.6879 7.72294 10.8375C7.6191 10.5003 7.27952 10.3017 6.96039 10.3999C6.83298 10.4326 4.42339 11.0507 4.57293 11.0124C4.32293 11.075 4.14789 11.2875 4.11043 11.5375C4.07289 11.7874 4.18543 12.0249 4.41043 12.1625L4.84797 12.4124C4.77435 12.5389 1.37197 18.3165 1.58542 17.95C1.24788 18.5375 1.24788 19.2375 1.58542 19.8125C1.93534 20.4 2.53543 20.75 3.21039 20.75V20.75Z" fill="black"/>
<path d="M8.08435 9.39731C8.67769 9.72718 9.42577 9.52251 9.76856 8.93656L11.9979 5.12496L14.6177 9.60814L14.1604 9.87493C13.9354 9.99989 13.8229 10.2499 13.8604 10.4999C13.8854 10.7499 14.0729 10.9499 14.3229 11.0124C14.4502 11.0456 16.8597 11.6765 16.7105 11.6374C17.0355 11.7249 17.3854 11.5249 17.473 11.1874C17.5057 11.0599 18.1238 8.65039 18.0855 8.79993C18.148 8.54993 18.0604 8.29989 17.8605 8.13739C17.6605 7.98739 17.3855 7.97489 17.1605 8.09993L16.762 8.33651L13.6229 2.95C13.2854 2.34996 12.6729 2 11.9979 2C11.3229 2 10.7104 2.34996 10.3729 2.9375L7.61218 7.67818C7.26043 8.28226 7.47331 9.05756 8.08435 9.39731V9.39731Z" fill="black"/>
<path d="M22.4146 19.8125C22.7521 19.2374 22.7521 18.5374 22.4146 17.9375L19.5313 13.0741C19.1748 12.4641 18.3838 12.271 17.7865 12.6481C17.2175 13.0073 17.0352 13.7526 17.3745 14.3337L19.7021 18.2499H15.1213L15.1205 17.6239C15.1199 17.3707 14.9673 17.143 14.7335 17.0466C14.501 16.9514 14.2312 17.0044 14.0524 17.1839L12.1798 19.0819C11.9355 19.3274 11.9385 19.7231 12.1823 19.9657L14.0597 21.8181C14.2327 21.991 14.4996 22.0517 14.7409 21.9517C14.9741 21.8547 15.1236 21.627 15.123 21.3744L15.1222 20.75H20.7897C21.4646 20.75 22.0646 20.4 22.4146 19.8125Z" fill="black"/>
</svg>
