<svg width="24" height="24" viewBox="0 0 24 24" fill="black"
  xmlns="http://www.w3.org/2000/svg">
  <path d="M21.8684 10.4211L21.7807 9.89474L20.1798 9.34649C20.0336 8.90789 19.8582 8.48392 19.6535 8.07456L20.3991 6.5614L20.0921 6.12281C19.4635 5.26023 18.7178 4.51462 17.8553 3.88596L17.4167 3.57895L15.9035 4.34649C15.4942 4.14181 15.0702 3.96637 14.6316 3.82018L14.1053 2.2193L13.5789 2.13158C13.0088 2.04386 12.4861 2 12.011 2C11.5358 2 11.0058 2.04386 10.4211 2.13158L9.89474 2.2193L9.34649 3.82018C8.90789 3.96637 8.49123 4.14181 8.09649 4.34649L6.58333 3.57895L6.14474 3.90789C5.28216 4.52193 4.53655 5.26754 3.90789 6.14474L3.60088 6.58333L4.34649 8.09649C4.14181 8.50585 3.96637 8.92251 3.82018 9.34649L2.2193 9.89474L2.13158 10.4211C2.04386 10.9912 2 11.5175 2 12C2 12.4825 2.04386 13.0088 2.13158 13.5789L2.2193 14.1053L3.82018 14.6535C3.96637 15.0921 4.14181 15.5088 4.34649 15.9035L3.60088 17.4167L3.90789 17.8553C4.22953 18.3085 4.5731 18.7105 4.9386 19.0614C5.27485 19.4123 5.6769 19.7558 6.14474 20.0921L6.58333 20.3991L8.09649 19.6535C8.50585 19.8582 8.92251 20.0336 9.34649 20.1798L9.89474 21.7807L10.4211 21.8684C10.9912 21.9561 11.5175 22 12 22C12.4825 22 13.0088 21.9561 13.5789 21.8684L14.1053 21.7807L14.6535 20.1798C15.0775 20.0336 15.4942 19.8582 15.9035 19.6535L17.4167 20.4211L17.8553 20.0921C18.3231 19.7558 18.7325 19.4123 19.0833 19.0614C19.4342 18.7105 19.7705 18.3085 20.0921 17.8553L20.3991 17.4167L19.6535 15.9035C19.8582 15.4942 20.0336 15.0702 20.1798 14.6316L21.7807 14.1053L21.8684 13.5789C21.9561 13.0088 22 12.4825 22 12C22 11.5175 21.9561 10.9912 21.8684 10.4211ZM20.4211 11.9781V12C20.4211 12.2924 20.4064 12.5994 20.3772 12.9211L18.9079 13.4035L18.6886 14.0833C18.5716 14.4927 18.4181 14.8801 18.2281 15.2456L17.8772 15.8816L18.5789 17.2632C18.3743 17.5117 18.1696 17.7383 17.9649 17.943V17.9649C17.7602 18.1696 17.5263 18.367 17.2632 18.557L15.9035 17.8772L15.2675 18.2061C14.8874 18.3962 14.4927 18.557 14.0833 18.6886L13.4035 18.9079L12.9211 20.3553C12.5994 20.3991 12.2924 20.4211 12 20.4211C11.7076 20.4211 11.4006 20.3991 11.0789 20.3553L10.5965 18.9079L9.91667 18.6886C9.50731 18.557 9.11988 18.3962 8.75439 18.2061L8.11842 17.8772L6.73684 18.557C6.4883 18.367 6.25804 18.1659 6.04605 17.9539C5.83406 17.742 5.63304 17.5117 5.44298 17.2632L6.12281 15.9035L5.79386 15.2675C5.58918 14.8728 5.42836 14.4854 5.3114 14.1053L5.09211 13.4035L3.64474 12.9211C3.60088 12.5994 3.57895 12.2924 3.57895 12C3.57895 11.7076 3.60088 11.4006 3.64474 11.0789L5.09211 10.5965L5.3114 9.91667C5.42836 9.50731 5.58918 9.11257 5.79386 8.73246L6.12281 8.09649L5.44298 6.73684C5.8231 6.25439 6.25439 5.8231 6.73684 5.44298L8.11842 6.12281L8.75439 5.79386C9.11988 5.58918 9.50731 5.42836 9.91667 5.3114L10.5965 5.09211L11.0789 3.62281C11.4152 3.59357 11.7259 3.57895 12.011 3.57895C12.2961 3.57895 12.5994 3.59357 12.9211 3.62281L13.4035 5.09211L14.0833 5.28947C14.4927 5.42105 14.8874 5.58187 15.2675 5.77193L15.9035 6.12281L17.2632 5.42105C17.7456 5.81579 18.1842 6.25439 18.5789 6.73684L17.8772 8.09649L18.2061 8.73246C18.4108 9.11257 18.5789 9.5 18.7105 9.89474L18.9079 10.5965L20.3772 11.0789C20.4211 11.4006 20.4357 11.7003 20.4211 11.9781ZM12 8.18421C10.9181 8.21345 10.019 8.58626 9.30263 9.30263C8.58626 10.019 8.21345 10.9181 8.18421 12C8.21345 13.0819 8.58626 13.981 9.30263 14.6974C10.019 15.4137 10.9181 15.7865 12 15.8158C13.0819 15.7865 13.9846 15.4137 14.7083 14.6974C15.432 13.981 15.8085 13.0819 15.8377 12C15.8085 10.9181 15.432 10.019 14.7083 9.30263C13.9846 8.58626 13.0819 8.21345 12 8.18421ZM13.6009 13.5789C13.1477 14.0175 12.614 14.2368 12 14.2368C11.386 14.2368 10.8596 14.0175 10.4211 13.5789C9.98246 13.1404 9.76316 12.614 9.76316 12C9.76316 11.386 9.98246 10.8596 10.4211 10.4211C10.8596 9.98246 11.386 9.76316 12 9.76316C12.614 9.76316 13.1404 9.98246 13.5789 10.4211C14.0175 10.8596 14.2368 11.386 14.2368 12C14.2368 12.614 14.0249 13.1404 13.6009 13.5789Z" />
</svg>
