<svg width="24" height="24" viewBox="0 0 24 24" fill="black" xmlns="http://www.w3.org/2000/svg">
  <path d="M21.8944 9.44305C21.7755 9.10135 21.5787 8.81537 21.3038 8.58509C21.029 8.35482 20.7133 8.20997 20.3567 8.15054L15.7884 7.45972L13.7605 3.11423C13.5822 2.75768 13.3334 2.48283 13.0139 2.2897C12.6945 2.09657 12.3566 2 12 2C11.6434 2 11.3055 2.09657 10.9861 2.2897C10.6666 2.48283 10.4252 2.75768 10.2618 3.11423L8.21162 7.45972L3.64328 8.15054C3.28673 8.20997 2.97103 8.35482 2.69619 8.58509C2.42134 8.81537 2.2245 9.10507 2.10565 9.45419C1.98679 9.80332 1.96822 10.1524 2.04993 10.5016C2.13164 10.8507 2.29878 11.159 2.55134 11.4264L5.91631 14.8582L5.11406 19.7162C5.06949 19.9985 5.08435 20.2734 5.15863 20.5408C5.23292 20.8082 5.36291 21.0533 5.54861 21.2762C5.73432 21.499 5.95716 21.6699 6.21715 21.7887C6.47714 21.9076 6.74827 21.967 7.03054 21.967C7.35738 21.967 7.66936 21.8853 7.96649 21.7219L12 19.4934L16.0335 21.7219C16.3306 21.8853 16.6426 21.967 16.9695 21.967C17.2517 21.967 17.5229 21.9076 17.7828 21.7887C18.0428 21.6699 18.2657 21.5027 18.4514 21.2873C18.6371 21.0719 18.7671 20.8268 18.8414 20.5519C18.9156 20.2771 18.9305 19.9985 18.8859 19.7162L18.0837 14.8582L21.4487 11.4264C21.7012 11.159 21.8684 10.8507 21.9501 10.5016C22.0318 10.1524 22.0132 9.7996 21.8944 9.44305Z" />
</svg>
